
<svg
   version="1.1"
   id="flag"
   width="82.355988"
   height="62.715199"
   viewBox="0 0 82.355988 62.715197"
   xmlns="http://www.w3.org/2000/svg"
>
  <defs
     id="defs1" />
  <g
     id="g1"
     transform="translate(-101.34322,-309.80748)">
    <g
       id="g31">
      <path
         id="path24"
         d="m 130.9793,608.9669 6.0736,0.5675 c 1.12044,0.002 0.6872,-1.39117 0.3452,-2.2036 l -2.2215,-4.4357 c -0.3787,-0.7563 -1.0757,-1.2194 -1.9199,-1.2759 l -5.1284,-0.3424 c -0.1492,-0.01 -0.273,-0.0819 -0.3558,-0.2063 l -1.7476,-2.6295 c -0.5813,-1.2875 -1.1942,-2.599 -1.8212,-3.886 -1.4247,-2.9239 -2.6649,-6.1959 -5.9219,-6.2234 l -10.0278,-0.0845 -6.8774,-14.0553 h 8.0458 1.0982 c 1.28994,0.0194 0.724,-0.81363 0.1567,-1.9948 l -4.0272,-8.3837 c -0.3957,-0.8235 -1.1778,-1.3153 -2.0914,-1.3153 h -7.3686 c -2.408458,0 -1.9162,0.93326 -1.9162,0.93326 l 4.7746,9.78144 H 87.8071 c -1.108421,0 -1.593352,0.0916 -1.254,0.9791 l 6.6424,13.5751 H 77.0686 c -1.078435,0 -1.212587,0.61946 -0.939099,1.17677 L 84.1915,604.7912 c 0.8374,1.6109 2.3528,2.6011 4.1681,2.6011 h 13.8538 c 0.4697,0.0244 0.7945,-0.6066 0.5686,-1.1299 l -0.0244,-0.0505 h 0.001 l -0.0249,-0.049 -8.2131,-17.1516 h 12.9469 l 5.1418,9.7611 c 0.9998,1.8981 2.8157,2.9602 4.9595,3.0368 l 8.818,0.3155 c 0.1658,0.006 0.3053,0.0904 0.3869,0.2347 l 3.4844,6.1415 c 0.1545,0.2721 0.4093,0.4368 0.7208,0.466"
         fill="currentColor"
         transform="matrix(1.3333333,0,0,-1.3333333,0,1122.52)" />
    </g>
  </g>
</svg>
