<svg id="icon" xmlns="http://www.w3.org/2000/svg" fill="none" viewBox="0 0 44 44"><g clip-path="url(#cross_svg__a)"><rect width="44" height="44" fill="#040406" rx="22"/><rect width="44" height="44" fill="url(#cross_svg__b)" rx="22"/><g filter="url(#cross_svg__c)" opacity=".4"><path fill="url(#cross_svg__d)" fill-rule="evenodd" d="M29.65 12.24a1 1 0 1 0-1.3 1.52L29.796 15H29c-4.411 0-6.698 3.242-8.681 6.055l-.26.367C17.912 24.452 15.933 27 12 27a1 1 0 1 0 0 2c5.067 0 7.588-3.453 9.691-6.422l.07-.1C23.932 19.414 25.642 17 29 17h.797l-1.448 1.24a1 1 0 1 0 1.302 1.52l3.5-3a1 1 0 0 0 0-1.52zM12 15a1 1 0 1 0 0 2c2.318 0 3.94.884 5.31 2.19a1 1 0 0 0 1.38-1.446C17.03 16.158 14.932 15 12 15m17.707 9.293 2.992 2.992a1 1 0 0 1 .301.712v.018a1 1 0 0 1-.293.692l-3 3a1 1 0 1 1-1.414-1.414L29.586 29H29c-2.438 0-4.233-.988-5.687-2.364a1 1 0 0 1 1.374-1.453C25.862 26.295 27.187 27 29 27h.586l-1.293-1.293a1 1 0 0 1 1.414-1.414" clip-rule="evenodd"/></g><path fill="#fff" fill-rule="evenodd" d="M29.65 12.24a1 1 0 1 0-1.3 1.52L29.796 15H29c-4.411 0-6.698 3.242-8.681 6.055l-.26.367C17.912 24.452 15.933 27 12 27a1 1 0 1 0 0 2c5.067 0 7.588-3.453 9.691-6.422l.07-.1C23.932 19.414 25.642 17 29 17h.797l-1.448 1.24a1 1 0 1 0 1.302 1.52l3.5-3a1 1 0 0 0 0-1.52zM12 15a1 1 0 1 0 0 2c2.318 0 3.94.884 5.31 2.19a1 1 0 0 0 1.38-1.446C17.03 16.158 14.932 15 12 15m17.707 9.293 2.992 2.992a1 1 0 0 1 .301.712v.018a1 1 0 0 1-.293.692l-3 3a1 1 0 1 1-1.414-1.414L29.586 29H29c-2.438 0-4.233-.988-5.687-2.364a1 1 0 0 1 1.374-1.453C25.862 26.295 27.187 27 29 27h.586l-1.293-1.293a1 1 0 0 1 1.414-1.414" clip-rule="evenodd"/><path fill="url(#cross_svg__e)" fill-rule="evenodd" d="M29.65 12.24a1 1 0 1 0-1.3 1.52L29.796 15H29c-4.411 0-6.698 3.242-8.681 6.055l-.26.367C17.912 24.452 15.933 27 12 27a1 1 0 1 0 0 2c5.067 0 7.588-3.453 9.691-6.422l.07-.1C23.932 19.414 25.642 17 29 17h.797l-1.448 1.24a1 1 0 1 0 1.302 1.52l3.5-3a1 1 0 0 0 0-1.52zM12 15a1 1 0 1 0 0 2c2.318 0 3.94.884 5.31 2.19a1 1 0 0 0 1.38-1.446C17.03 16.158 14.932 15 12 15m17.707 9.293 2.992 2.992a1 1 0 0 1 .301.712v.018a1 1 0 0 1-.293.692l-3 3a1 1 0 1 1-1.414-1.414L29.586 29H29c-2.438 0-4.233-.988-5.687-2.364a1 1 0 0 1 1.374-1.453C25.862 26.295 27.187 27 29 27h.586l-1.293-1.293a1 1 0 0 1 1.414-1.414" clip-rule="evenodd"/><g filter="url(#cross_svg__f)" opacity=".4"><ellipse cx="22" cy="43" fill="#C98D55" rx="17" ry="7"/></g></g><rect width="43" height="43" x=".5" y=".5" stroke="url(#cross_svg__g)" rx="21.5"/><defs><linearGradient id="cross_svg__b" x1="22" x2="22" y1="0" y2="44" gradientUnits="userSpaceOnUse"><stop stop-color="#3B3B47"/><stop offset="1" stop-color="#040406"/></linearGradient><linearGradient id="cross_svg__d" x1="22.25" x2="22.25" y1="12" y2="32" gradientUnits="userSpaceOnUse"><stop stop-color="#FFB359"/><stop offset="1" stop-color="#CA6545"/></linearGradient><linearGradient id="cross_svg__e" x1="22.25" x2="22.25" y1="12" y2="32" gradientUnits="userSpaceOnUse"><stop stop-color="#FFB359"/><stop offset="1" stop-color="#CA6545"/></linearGradient><linearGradient id="cross_svg__g" x1="22" x2="22" y1="0" y2="44" gradientUnits="userSpaceOnUse"><stop stop-color="#515161"/><stop offset="1" stop-color="#213131" stop-opacity="0"/></linearGradient><filter id="cross_svg__c" width="32" height="32" x="6" y="6" color-interpolation-filters="sRGB" filterUnits="userSpaceOnUse"><feFlood flood-opacity="0" result="BackgroundImageFix"/><feBlend in="SourceGraphic" in2="BackgroundImageFix" result="shape"/><feGaussianBlur result="effect1_foregroundBlur_6815_39955" stdDeviation="2"/></filter><filter id="cross_svg__f" width="62" height="42" x="-9" y="22" color-interpolation-filters="sRGB" filterUnits="userSpaceOnUse"><feFlood flood-opacity="0" result="BackgroundImageFix"/><feBlend in="SourceGraphic" in2="BackgroundImageFix" result="shape"/><feGaussianBlur result="effect1_foregroundBlur_6815_39955" stdDeviation="7"/></filter><clipPath id="cross_svg__a"><rect width="44" height="44" fill="#fff" rx="22"/></clipPath></defs></svg>
