<?xml version="1.0" encoding="UTF-8" standalone="no"?>
<!-- Created with Inkscape (http://www.inkscape.org/) -->

<svg
   version="1.1"
   id="pitlane"
   width="118.5336"
   height="62.717979"
   viewBox="0 0 118.5336 62.717978"
   xmlns="http://www.w3.org/2000/svg"
>
  <defs
     id="defs1" />

  <g
     id="g1"

     transform="translate(-101.31813,-309.80469)">
    <g
       id="g31">
      <path
         id="path23"
         d="m 111.2063,570.0844 v 0 h 1.6648 0.8322 1.6645 0.8323 0.7492 0.083 l 0.5148,-0.771 -1.7382,-4.2228 h -1.6645 l 1.713,4.1615 h -0.8323 l -1.713,-4.1615 h -1.6648 l 1.7133,4.1615 h -0.8323 l -1.7132,-4.1615 h -1.6645 l 2.0503,4.9799 0.005,0.0139 z m 7.8307,0 h 2.2195 1.1095 l 0.3441,-0.5145 -1.7575,-4.2656 -0.3206,-0.2137 h -1.4315 -1.9669 l -0.3274,0.4926 1.5106,3.6689 h -0.008 l 0.2234,0.5287 0.4051,0.3036 z m 1.0445,-0.8323 -1.3705,-3.329 h 0.8322 l 1.3706,3.329 z m 4.1976,1.6648 h 1.6645 l -0.3424,-0.8325 h 2.4899 l -0.3413,-0.8323 h -2.4928 l -1.3745,-3.329 h 0.8309 l 0.5144,1.2484 h 1.6648 l -0.8575,-2.0809 h -2.4967 -1.6645 l 0.3424,0.8325 h 10e-4 l 1.3748,3.329 h -0.004 l 0.3413,0.8323 h 0.007 z m 4.9759,-0.8325 h 2.2196 1.1094 l 0.3442,-0.5145 -1.7575,-4.2656 -0.3206,-0.2137 h -1.4315 -1.967 l -0.3274,0.4926 1.5106,3.6689 h -0.008 l 0.2234,0.5287 0.405,0.3036 z m 1.0446,-0.8323 -1.3706,-3.329 h 0.8323 l 1.3705,3.329 z m 7.8264,0.8337 v -10e-4 h 4.1613 l -0.3424,-0.8323 v 0 l -0.3427,-0.8322 h -1.6645 l 0.3424,0.8322 h -0.8323 l -0.5144,-1.2484 h 2.4967 v 0 l -1.1985,-2.9131 h -2.522 -1.6395 -0.025 l 0.6855,1.6648 h 1.6645 l -0.3428,-0.8323 h 0.8575 l 0.5131,1.2484 h -2.4968 l 0.3425,0.8322 v 0 l 0.8574,2.0821 z m 5.4003,0.8311 h 1.6645 l -0.3427,-0.8325 h 2.49 l -0.3413,-0.8323 h -2.4925 l -1.3748,-3.329 h 0.8308 l 0.5148,1.2484 h 1.6645 l -0.8572,-2.0809 h -2.4968 -1.6647 l 0.3427,0.8325 h 10e-4 l 1.3745,3.329 h -0.004 l 0.3413,0.8323 h 0.007 l 0.3427,0.8325 z m 4.6985,-0.8325 h 1.6645 l -1.7147,-4.1613 h 0.8325 l 1.7144,4.1613 h 1.6645 l -1.978,-4.8022 -0.2871,-0.1916 h -1.4565 -1.942 l -0.3427,0.5148 0.1304,0.3177 v 0 z m 8.2272,1.6648 h 1.6645 l -2.7411,-6.6586 h -0.8322 -0.8323 -0.8322 -1.6645 l 2.0557,4.9938 h 1.6645 0.8325 z m -1.8601,-2.4971 -1.3705,-3.329 h 0.8322 l 1.3706,3.329 z m 4.4402,2.4971 h 1.6648 l -0.5148,-1.2484 h -1.6645 z m -0.6865,-1.6648 h 1.6645 l -2.0557,-4.9938 h -1.6645 z m 2.8701,0 h 2.2195 1.1097 l 0.3439,-0.5145 -1.7575,-4.2656 -0.3203,-0.2137 h -1.4315 -1.967 l -0.3274,0.4926 1.5106,3.6689 h -0.008 l 0.2234,0.5287 0.4051,0.3036 z m 1.0445,-0.8323 -1.3705,-3.329 h 0.8325 l 1.3703,3.329 z"
         transform="matrix(1.3333333,0,0,-1.3333333,0,1122.52)"
         fill="white"
      />
      <path
         id="path24"
         d="m 130.9793,608.9669 6.0736,0.5675 c 1.12044,0.002 0.6872,-1.39117 0.3452,-2.2036 l -2.2215,-4.4357 c -0.3787,-0.7563 -1.0757,-1.2194 -1.9199,-1.2759 l -5.1284,-0.3424 c -0.1492,-0.01 -0.273,-0.0819 -0.3558,-0.2063 l -1.7476,-2.6295 c -0.5813,-1.2875 -1.1942,-2.599 -1.8212,-3.886 -1.4247,-2.9239 -2.6649,-6.1959 -5.9219,-6.2234 l -10.0278,-0.0845 -6.8774,-14.0553 h 8.0458 1.0982 c 1.28994,0.0194 0.724,-0.81363 0.1567,-1.9948 l -4.0272,-8.3837 c -0.3957,-0.8235 -1.1778,-1.3153 -2.0914,-1.3153 h -7.3686 c -2.408458,0 -1.9162,0.93326 -1.9162,0.93326 l 4.7746,9.78144 H 87.8071 c -1.108421,0 -1.593352,0.0916 -1.254,0.9791 l 6.6424,13.5751 H 77.0686 c -1.078435,0 -1.212587,0.61946 -0.939099,1.17677 L 84.1915,604.7912 c 0.8374,1.6109 2.3528,2.6011 4.1681,2.6011 h 13.8538 c 0.4697,0.0244 0.7945,-0.6066 0.5686,-1.1299 l -0.0244,-0.0505 h 0.001 l -0.0249,-0.049 -8.2131,-17.1516 h 12.9469 l 5.1418,9.7611 c 0.9998,1.8981 2.8157,2.9602 4.9595,3.0368 l 8.818,0.3155 c 0.1658,0.006 0.3053,0.0904 0.3869,0.2347 l 3.4844,6.1415 c 0.1545,0.2721 0.4093,0.4368 0.7208,0.466"
         transform="matrix(1.3333333,0,0,-1.3333333,0,1122.52)"
         fill="white"
         />
      <path
         id="path25"
         d="m 158.3388,586.711 h 2.6044 3.9068 0.0388 l -1.6129,-3.2553 h -2.6045 l 0.9683,1.9531 h -1.3413 l -3.2242,-6.5109 h 1.2634 l -0.6295,-1.3023 h -1.2785 l -0.3234,-0.6511 h 3.8914 l -0.6296,-1.3022 h -3.9067 -2.6044 l 0.6295,1.3022 h 0.0153 z m -8.4646,0 h 2.6045 l -0.396,-4.7444 2.3494,4.7444 h 2.6044 l -5.4819,-11.0687 h -2.6045 l 0.396,4.7443 -2.3493,-4.7443 h -2.6045 z m -5.8538,-1.3022 -3.2238,-6.5109 h 1.3022 l 3.2238,6.5109 z m -1.9596,1.3022 h 1.3023 1.3022 1.3022 2.6045 l -5.4819,-11.0687 h -2.6045 l 0.9683,1.9533 h -1.3022 l -0.9683,-1.9533 h -2.6045 z m -7.8395,0 h 2.6045 l -4.837,-9.7665 h 1.3022 l 0.9683,1.9534 h 2.6045 l -1.6132,-3.2556 h -3.9067 -2.6042 z m -13.5691,0 h 1.9533 2.6045 1.9533 l -0.6448,-1.3022 h -1.9534 l -4.837,-9.7665 h -2.6045 l 4.837,9.7665 h -1.9533 z m -3.6281,0 h 2.6045 l -5.482,-11.0687 h -2.6044 z m -5.6245,-1.3022 -3.5473,-7.1623 h 1.402 l 3.4628,7.1623 z m -1.9596,1.3022 h 1.9534 0.6511 1.9533 0.6511 l 0.7042,-1.2087 -3.5314,-7.3621 -1.8947,-1.1957 h -0.6511 -2.0685 l -0.6448,-1.3022 h -2.6045 z"
         fill="red"
         transform="matrix(1.3333333,0,0,-1.3333333,0,1122.52)" />
    </g>
  </g>
</svg>
